<svg aria-label="Instagram" fill="currentColor" height="29" role="img" viewBox="32 4 113 32" width="103">
  <title>Instagram</title>
  <path clip-rule="evenodd" d="M37.82 4.11c-2.32.97-4.86 3.7-5.66 7.13-1.02 4.34 3.21 6.17 3.56 5.57.4-.7-.76-.94-1-3.2-.3-2.9 1.05-6.16 2.75-7.58.32-.27.3.1.3.78l-.06 14.46c0 3.1-.13 4.07-.36 5.04-.23.98-.6 1.64-.33 1.9.32.28 1.68-.4 2.46-1.5a8.13 8.13 0 0 0 1.33-4.58c.07-2.06.06-5.33.07-7.19 0-1.7.03-6.71-.03-9.72-.02-.74-2.07-1.51-3.03-1.1Zm82.13 14.48a9.42 9.42 0 0 1-.88 3.75c-.85 1.72-2.63 2.25-3.39-.22-.4-1.34-.43-3.59-.13-5.47.3-1.9 1.14-3.35 2.53-3.22 1.38.13 2.02 1.9 1.87 5.16ZM96.8 28.57c-.02 2.67-.44 5.01-1.34 5.7-1.29.96-3 .23-2.65-1.72.31-1.72 1.8-3.48 4-5.64l-.01 1.66Zm-.35-10a10.56 10.56 0 0 1-.88 3.77c-.85 1.72-2.64 2.25-3.39-.22-.5-1.69-.38-3.87-.13-5.25.33-1.78 1.12-3.44 2.53-3.44 1.38 0 2.06 1.5 1.87 5.14Zm-13.41-.02a9.54 9.54 0 0 1-.87 3.8c-.88 1.7-2.63 2.24-3.4-.23-.55-1.77-.36-4.2-.13-5.5.34-1.95 1.2-3.32 2.53-3.2 1.38.14 2.04 1.9 1.87 5.13Zm61.45 1.81c-.33 0-.49.35-.61.93-.44 2.02-.9 2.48-1.5 2.48-.66 0-1.26-1-1.42-3-.12-1.58-.1-4.48.06-7.37.03-.59-.14-1.17-1.73-1.75-.68-.25-1.68-.62-2.17.58a29.65 29.65 0 0 0-2.08 7.14c0 .06-.08.07-.1-.06-.07-.87-.26-2.46-.28-5.79 0-.65-.14-1.2-.86-1.65-.47-.3-1.88-.81-2.4-.2-.43.5-.94 1.87-1.47 3.48l-.74 2.2.01-4.88c0-.5-.34-.67-.45-.7a9.54 9.54 0 0 0-1.8-.37c-.48 0-.6.27-.6.67 0 .05-.08 4.65-.08 7.87v.46c-.27 1.48-1.14 3.49-2.09 3.49s-1.4-.84-1.4-4.68c0-2.24.07-3.21.1-4.83.02-.94.06-1.65.06-1.81-.01-.5-.87-.75-1.27-.85-.4-.09-.76-.13-1.03-.11-.4.02-.67.27-.67.62v.55a3.71 3.71 0 0 0-1.83-1.49c-1.44-.43-2.94-.05-4.07 1.53a9.31 9.31 0 0 0-1.66 4.73c-.16 1.5-.1 3.01.17 4.3-.33 1.44-.96 2.04-1.64 2.04-.99 0-1.7-1.62-1.62-4.4.06-1.84.42-3.13.82-4.99.17-.8.04-1.2-.31-1.6-.32-.37-1-.56-1.99-.33-.7.16-1.7.34-2.6.47 0 0 .05-.21.1-.6.23-2.03-1.98-1.87-2.69-1.22-.42.39-.7.84-.82 1.67-.17 1.3.9 1.91.9 1.91a22.22 22.22 0 0 1-3.4 7.23v-.7c-.01-3.36.03-6 .05-6.95.02-.94.06-1.63.06-1.8 0-.36-.22-.5-.66-.67-.4-.16-.86-.26-1.34-.3-.6-.05-.97.27-.96.65v.52a3.7 3.7 0 0 0-1.84-1.49c-1.44-.43-2.94-.05-4.07 1.53a10.1 10.1 0 0 0-1.66 4.72c-.15 1.57-.13 2.9.09 4.04-.23 1.13-.89 2.3-1.63 2.3-.95 0-1.5-.83-1.5-4.67 0-2.24.07-3.21.1-4.83.02-.94.06-1.65.06-1.81 0-.5-.87-.75-1.27-.85-.42-.1-.79-.13-1.06-.1-.37.02-.63.35-.63.6v.56a3.7 3.7 0 0 0-1.84-1.49c-1.44-.43-2.93-.04-4.07 1.53-.75 1.03-1.35 2.17-1.66 4.7a15.8 15.8 0 0 0-.12 2.04c-.3 1.81-1.61 3.9-2.68 3.9-.63 0-1.23-1.21-1.23-3.8 0-3.45.22-8.36.25-8.83l1.62-.03c.68 0 1.29.01 2.19-.04.45-.02.88-1.64.42-1.84-.21-.09-1.7-.17-2.3-.18-.5-.01-1.88-.11-1.88-.11s.13-3.26.16-3.6c.02-.3-.35-.44-.57-.53a7.77 7.77 0 0 0-1.53-.44c-.76-.15-1.1 0-1.17.64-.1.97-.15 3.82-.15 3.82-.56 0-2.47-.11-3.02-.11-.52 0-1.08 2.22-.36 2.25l3.2.09-.03 6.53v.47c-.53 2.73-2.37 4.2-2.37 4.2.4-1.8-.42-1.74-.8-1.74-.7 0-.95 2.28-1.73 3.34-.67.92-1.57 1.7-2.61 1.7-2.57 0-4.15-4.52-3.16-7.72 1-3.2 3.27-5.08 5.66-5.08 2.4 0 3.7 1.85 3.7 4.58 0 2.72-1.2 5.6-2.2 5.6-.7 0-1.27-.83-1.27-2.36 0-.92.22-2.57.23-2.62.02-.5.13-1.5-.6-1.5-.83 0-1.16.97-1.16 1.6 0 .77.22 1.3.22 1.3s-.73 3.3-2.04 3.3c-.7 0-.83-1.18-.83-2.03 0-1.97.93-4.22.93-4.22s-1.18 0-2.02 0c-4.94.01-8.02-4.37-8.02-8.18-.01-3.2 3.33-7.67 9.63-7.67 5.74 0 10.6 4.26 10.6 10.77 0 6.4-3.3 10.53-7.92 10.53-2.14 0-4.48-1.34-4.42-3.73 0-.98.58-1.88.9-2.4.83-1.37 2.6-2.74 2.6-4.34 0-.78-.6-1.41-1.65-1.41-1.3 0-2.35 1.35-2.35 2.98 0 1.09.47 1.82.47 1.82l-1.72 7.13c-1.15 4.71-.2 10.48 2.8 13.7 1.92 2.14 4.68 3.29 7.38 3.29 6.56 0 11.95-5.35 11.95-11.95 0-3.94-1.95-7.13-5.35-9.19l-.01-.01c-.66-.39-.72-1.42-.72-2.17v-5.55c0-4.2 4.82-4.2 4.82 0v5.7c0 .8.22 1.66.55 2.48 1.05 2.55 3.3 4.22 6.6 4.22 4.7 0 8.66-4.03 8.66-8.98-.01-3.55-2.46-5.98-6.27-5.98a9.55 9.55 0 0 0-4.5 1.03c.5 1.15.5 2.68.5 2.68s-.64 5.72-3.15 6.5a2.4 2.4 0 0 1-.97.12c-.83 0-1.35-.85-1.35-1.75 0-1.27.88-2.82 1.62-4.48.7-1.56 1.35-3.26 1.35-5.1 0-4.42-3.08-7.58-7.58-7.58Z" fill-rule="evenodd"></path>
</svg>
